<svg width="180" height="180" viewBox="0 0 180 180" fill="none" xmlns="http://www.w3.org/2000/svg">
<path d="M172.864 124.715C174.254 121.39 175.445 117.99 176.438 114.54L65.2988 3.40039C61.8489 4.36833 58.4488 5.55965 55.123 6.97433L172.864 124.715Z" fill="white"/>
<path d="M165.245 139.11C167.106 136.281 168.769 133.352 170.258 130.374L49.4394 9.55518C46.4612 11.0443 43.5325 12.7072 40.7031 14.5686L165.245 139.11Z" fill="white"/>
<path d="M155.54 151.42C157.799 149.013 159.884 146.531 161.82 143.95L35.8634 17.9937C33.2822 19.9295 30.8003 22.0391 28.3928 24.2728L155.54 151.42Z" fill="white"/>
<path d="M4.76514 118.957C9.05882 131.59 16.2315 143.453 26.308 153.53C36.3845 163.606 48.2479 170.779 60.8808 175.073L4.76514 118.957Z" fill="white"/>
<path d="M107.665 1.71251C102.552 0.694937 97.3898 0.124095 92.2026 0L179.838 87.6357C179.714 82.4486 179.143 77.2862 178.126 72.1735L107.665 1.71251Z" fill="white"/>
<path d="M178.052 107.888C178.871 103.867 179.392 99.8219 179.665 95.7516L84.0872 0.173828C80.0169 0.446837 75.9465 0.96802 71.9507 1.78705L178.052 107.888Z" fill="white"/>
<path d="M130.374 170.258C133.352 168.769 136.281 167.106 139.11 165.245L14.5934 40.728C12.732 43.5574 11.0692 46.486 9.58008 49.4643L130.374 170.258Z" fill="white"/>
<path d="M72.1736 178.101C77.2863 179.119 82.4486 179.689 87.6357 179.813L0 92.1777C0.124095 97.3649 0.694937 102.527 1.71251 107.64L72.1736 178.101Z" fill="white"/>
<path d="M175.048 60.8563C170.754 48.2235 163.581 36.3601 153.505 26.2836C143.428 16.2071 131.565 9.0344 118.932 4.74072L175.048 60.8563Z" fill="white"/>
<path d="M114.539 176.438C117.989 175.47 121.389 174.278 124.715 172.864L6.94878 55.0977C5.55892 58.4234 4.36776 61.8235 3.375 65.2734L114.539 176.438Z" fill="white"/>
<path d="M95.7516 179.664C99.8219 179.391 103.892 178.87 107.888 178.051L1.76222 71.9253C0.943193 75.946 0.421934 79.9914 0.148926 84.0617L95.7516 179.664Z" fill="white"/>
<path d="M143.949 161.819C146.531 159.884 149.013 157.774 151.42 155.54L24.2973 28.4175C22.0388 30.8249 19.9539 33.3068 18.0181 35.8879L143.949 161.819Z" fill="white"/>
</svg>
