<svg width="102" height="32" viewBox="0 0 102 32" fill="none" xmlns="http://www.w3.org/2000/svg">
<path fill-rule="evenodd" clip-rule="evenodd" d="M85 14L90 19L95 14H85Z" fill="#1C3554"/>
<path d="M6.688 22.192C8.64 22.192 10.256 21.488 11.312 20.192L9.648 18.656C8.896 19.536 7.952 19.984 6.832 19.984C4.736 19.984 3.248 18.512 3.248 16.4C3.248 14.288 4.736 12.816 6.832 12.816C7.952 12.816 8.896 13.264 9.648 14.128L11.312 12.592C10.256 11.312 8.64 10.608 6.704 10.608C3.216 10.608 0.624 13.024 0.624 16.4C0.624 19.776 3.216 22.192 6.688 22.192ZM16.2959 13.264C14.9199 13.264 13.5279 13.632 12.5839 14.304L13.4799 16.048C14.1039 15.552 15.0479 15.248 15.9599 15.248C17.3039 15.248 17.9439 15.872 17.9439 16.944H15.9599C13.3359 16.944 12.2639 18 12.2639 19.52C12.2639 21.008 13.4639 22.128 15.4799 22.128C16.7439 22.128 17.6399 21.712 18.1039 20.928V22H20.4399V17.088C20.4399 14.48 18.9199 13.264 16.2959 13.264ZM16.1039 20.448C15.2239 20.448 14.6959 20.032 14.6959 19.408C14.6959 18.832 15.0639 18.4 16.2319 18.4H17.9439V19.28C17.6559 20.064 16.9359 20.448 16.1039 20.448ZM27.5789 19.824C27.3069 20.032 26.9389 20.144 26.5709 20.144C25.8989 20.144 25.4989 19.744 25.4989 19.008V15.504H27.6429V13.584H25.4989V11.488H23.0029V13.584H21.6749V15.504H23.0029V19.04C23.0029 21.088 24.1869 22.128 26.2189 22.128C26.9869 22.128 27.7389 21.952 28.2509 21.584L27.5789 19.824ZM37.8184 17.728C37.8184 14.96 35.8664 13.264 33.3384 13.264C30.7144 13.264 28.7464 15.12 28.7464 17.696C28.7464 20.256 30.6824 22.128 33.6584 22.128C35.2104 22.128 36.4104 21.648 37.2104 20.736L35.8824 19.296C35.2904 19.856 34.6344 20.128 33.7224 20.128C32.4104 20.128 31.4984 19.472 31.2584 18.4H37.7704C37.7864 18.192 37.8184 17.92 37.8184 17.728ZM33.3544 15.152C34.4744 15.152 35.2904 15.856 35.4664 16.944H31.2264C31.4024 15.84 32.2184 15.152 33.3544 15.152ZM45.9921 13.392V14.496C45.3361 13.664 44.3441 13.264 43.1441 13.264C40.7601 13.264 38.8401 14.912 38.8401 17.424C38.8401 19.936 40.7601 21.584 43.1441 21.584C44.2641 21.584 45.2081 21.232 45.8641 20.512V20.88C45.8641 22.432 45.0961 23.232 43.3361 23.232C42.2321 23.232 41.0321 22.848 40.2961 22.256L39.3041 24.048C40.3121 24.832 41.8961 25.232 43.5281 25.232C46.6321 25.232 48.3601 23.76 48.3601 20.56V13.392H45.9921ZM43.6401 19.536C42.3281 19.536 41.3681 18.688 41.3681 17.424C41.3681 16.16 42.3281 15.312 43.6401 15.312C44.9521 15.312 45.8961 16.16 45.8961 17.424C45.8961 18.688 44.9521 19.536 43.6401 19.536ZM54.7793 22.128C57.5153 22.128 59.4993 20.288 59.4993 17.696C59.4993 15.104 57.5153 13.264 54.7793 13.264C52.0433 13.264 50.0433 15.104 50.0433 17.696C50.0433 20.288 52.0433 22.128 54.7793 22.128ZM54.7793 20.08C53.5312 20.08 52.5713 19.184 52.5713 17.696C52.5713 16.208 53.5312 15.312 54.7793 15.312C56.0273 15.312 56.9713 16.208 56.9713 17.696C56.9713 19.184 56.0273 20.08 54.7793 20.08ZM63.5516 14.528V13.392H61.1676V22H63.6636V17.936C63.6636 16.288 64.5756 15.536 65.9516 15.536C66.1436 15.536 66.3036 15.552 66.5116 15.568V13.264C65.1836 13.264 64.1596 13.696 63.5516 14.528ZM74.4366 13.392L72.0046 19.232L69.5886 13.392H67.0126L70.7406 22.064L70.7086 22.144C70.3726 22.912 69.9886 23.216 69.3006 23.216C68.8046 23.216 68.2766 23.008 67.8926 22.672L66.9806 24.448C67.5406 24.944 68.5006 25.232 69.3806 25.232C70.9326 25.232 72.1166 24.608 72.9486 22.528L76.8366 13.392H74.4366Z" fill="#1C3554"/>
</svg>
