<svg width="251" height="104" viewBox="0 0 251 104" fill="none" xmlns="http://www.w3.org/2000/svg">
<g opacity="0.7">
<path d="M62.7928 57.803C63.552 56.2074 63.9272 54.4562 63.8885 52.6896C63.9749 50.9702 63.5627 49.2624 62.7014 47.7717C61.9377 46.5773 60.9099 45.5743 59.6974 44.8397C58.4775 44.1073 57.1662 43.5393 55.7975 43.1505C54.4059 42.753 53.1057 42.3573 51.8967 41.9635C50.8289 41.6344 49.8159 41.1485 48.8908 40.5217C48.5033 40.2498 48.1912 39.884 47.9836 39.4585C47.776 39.0331 47.6797 38.562 47.7038 38.0892C47.6856 37.4876 47.8596 36.8959 48.2005 36.4C48.5372 35.9306 48.9799 35.5474 49.4926 35.2814C50.0248 34.9989 50.5931 34.7903 51.1818 34.6614C51.7511 34.5319 52.3328 34.4652 52.9167 34.4624C53.9602 34.4778 54.9934 34.6711 55.9719 35.034C56.975 35.3656 57.8622 35.9774 58.5286 36.7972L63.8437 30.9844C62.3978 29.6861 60.6852 28.7199 58.8263 28.1538C56.9577 27.5891 55.0157 27.3044 53.0637 27.3091C51.3655 27.3061 49.6758 27.5488 48.0471 28.0296C46.4895 28.4713 45.0285 29.2013 43.74 30.1817C42.498 31.1427 41.4808 32.3633 40.7597 33.7584C39.9879 35.2986 39.6043 37.0041 39.642 38.7265C39.5621 40.3873 39.9861 42.0335 40.8583 43.4491C41.652 44.6234 42.696 45.6073 43.9153 46.3299C45.1635 47.069 46.4978 47.6516 47.8882 48.0648C49.3115 48.4958 50.6361 48.9265 51.862 49.3568C52.9548 49.7191 53.9855 50.247 54.9182 50.9219C55.3104 51.2088 55.6264 51.5874 55.8384 52.0247C56.0504 52.462 56.1521 52.9445 56.1344 53.4302C56.1498 54.0133 55.9856 54.587 55.6642 55.0737C55.3427 55.5428 54.9182 55.9323 54.4233 56.2124C53.8817 56.5216 53.2969 56.7481 52.6884 56.8844C50.7833 57.33 48.7827 57.1016 47.0272 56.2379C45.8364 55.6777 44.8016 54.8332 44.014 53.779L38.4998 59.8392C40.0727 61.3248 41.9318 62.4743 43.9637 63.2177C46.0079 63.9285 48.1593 64.2819 50.3235 64.2623C52.0776 64.2704 53.8244 64.0363 55.5144 63.5665C57.0794 63.1397 58.5469 62.4142 59.8361 61.4298C61.0845 60.4613 62.0957 59.221 62.7928 57.803V57.803Z" fill="#1C3554"/>
<path d="M66.4177 35.0504H76.4536V63.3665H84.2022V35.0504H94.2371V28.1948H66.4177V35.0504Z" fill="#1C3554"/>
<path d="M152.635 32.2955C150.601 30.807 148.288 29.7417 145.834 29.1626C143.142 28.5064 140.379 28.1813 137.607 28.1947H120.069V49.5056C120.079 50.5389 119.902 51.5656 119.547 52.5361C119.221 53.4281 118.723 54.2472 118.081 54.9467C117.453 55.6243 116.693 56.1652 115.846 56.5355C114.954 56.9231 113.989 57.1179 113.016 57.1071C112.034 57.1167 111.061 56.922 110.159 56.5355C109.303 56.1698 108.533 55.6285 107.899 54.9467C107.257 54.2467 106.759 53.4277 106.432 52.5361C106.078 51.5656 105.901 50.5389 105.911 49.5056V28.1947H98.1606V49.8041C98.1399 51.7651 98.4593 53.7149 99.1048 55.5667C99.7038 57.2729 100.66 58.8313 101.911 60.1377C103.221 61.4756 104.809 62.5111 106.561 63.1719C108.233 63.7959 109.993 64.1486 111.776 64.2165L111.713 64.2649H138.681C141.291 64.2761 143.886 63.8806 146.373 63.0925C148.726 62.3617 150.921 61.1952 152.843 59.6537C154.719 58.1326 156.24 56.2205 157.301 54.051C158.445 51.6416 159.012 48.999 158.957 46.3325C159.04 43.4384 158.455 40.5641 157.249 37.932C156.186 35.7102 154.603 33.7769 152.635 32.2955V32.2955ZM149.705 51.0916C149.095 52.4383 148.158 53.6117 146.98 54.5057C145.757 55.4036 144.36 56.0368 142.879 56.3648C141.2 56.7493 139.482 56.9371 137.76 56.9245H133.634V35.5306H138.321C139.93 35.5241 141.533 35.7392 143.084 36.1697C144.508 36.5536 145.847 37.2019 147.032 38.0809C148.16 38.9391 149.075 40.0462 149.705 41.316C150.396 42.7523 150.736 44.3319 150.699 45.9253C150.75 47.6994 150.411 49.4632 149.705 51.0916V51.0916Z" fill="#1C3554"/>
<path d="M170.695 28.1948H162.945V63.3665H170.695V28.1948Z" fill="#1C3554"/>
<path d="M212.399 53.4301C213.371 50.9986 213.852 48.3986 213.815 45.7802C213.852 43.1617 213.371 40.5617 212.399 38.1302C211.51 35.9266 210.164 33.9366 208.449 32.2919C206.719 30.6611 204.674 29.402 202.438 28.592C197.518 26.8692 192.158 26.8692 187.237 28.592C185.002 29.4017 182.956 30.6609 181.226 32.2919C179.512 33.9368 178.165 35.9267 177.276 38.1302C176.305 40.5619 175.824 43.1618 175.861 45.7802C175.824 48.3985 176.305 50.9984 177.276 53.4301C178.165 55.6333 179.512 57.6229 181.226 59.2675C182.956 60.8996 185.001 62.1595 187.237 62.9692C192.158 64.692 197.518 64.692 202.438 62.9692C204.674 62.1593 206.72 60.8994 208.449 59.2675C210.164 57.6231 211.51 55.6335 212.399 53.4301V53.4301ZM205.002 50.3256C204.516 51.656 203.763 52.8731 202.79 53.9022C201.817 54.922 200.642 55.7261 199.339 56.2625C196.447 57.3887 193.238 57.3887 190.346 56.2625C189.043 55.7261 187.867 54.922 186.895 53.9022C185.921 52.8731 185.169 51.656 184.682 50.3256C183.657 47.3904 183.657 44.1945 184.682 41.2594C185.165 39.9196 185.918 38.6934 186.895 37.6572C187.868 36.6391 189.044 35.8358 190.346 35.2987C193.238 34.1725 196.447 34.1725 199.339 35.2987C200.641 35.8358 201.816 36.6391 202.79 37.6572C203.767 38.6934 204.52 39.9196 205.002 41.2594C206.026 44.1947 206.026 47.3902 205.002 50.3256Z" fill="#1C3554"/>
<path d="M38.571 70.664H40.6036V76.3991H42.1723V70.664H44.2058V69.2751H38.571V70.664Z" fill="#1C3554"/>
<path d="M61.4122 69.2751L58.3333 76.3973H60.0627L60.6571 74.888H63.4238L64.0374 76.3973H65.8088L62.7097 69.2751H61.4122ZM61.1502 73.5667L62.0149 71.3524L62.8905 73.5667H61.1502Z" fill="#1C3554"/>
<path d="M86.6967 74.226H86.6757L83.6479 69.2751H81.5149V76.3991H83.0845V71.3278H83.1046L86.2137 76.3991H88.2663V69.2751H86.6967V74.226Z" fill="#1C3554"/>
<path d="M107.052 69.2751L103.973 76.3973H105.703L106.296 74.888H109.063L109.677 76.3973H111.448L108.349 69.2751H107.052ZM106.79 73.5667L107.654 71.3524L108.53 73.5667H106.79Z" fill="#1C3554"/>
<path d="M131.773 71.9323H128.724V69.2751H127.154V76.3991H128.724V73.3202H131.773V76.3991H133.342V69.2751H131.773V71.9323Z" fill="#1C3554"/>
<path d="M170.098 69.2751L167.02 76.3973H168.754L169.348 74.888H172.115L172.728 76.3973H174.5L171.401 69.2751H170.098ZM169.836 73.5667L170.701 71.3524L171.577 73.5667H169.836Z" fill="#1C3554"/>
<path d="M191.751 69.2751H190.18V76.3991H191.751V69.2751Z" fill="#1C3554"/>
<path d="M212.074 73.3904C212.53 73.3254 212.941 73.0853 213.222 72.7211C213.489 72.3494 213.627 71.9004 213.615 71.4428C213.627 71.0832 213.552 70.7261 213.398 70.4009C213.263 70.1336 213.062 69.9052 212.814 69.7371C212.554 69.5663 212.264 69.4467 211.959 69.3846C211.62 69.3127 211.274 69.2772 210.928 69.2787H208.171V76.4009H209.741V73.552H210.517L212.006 76.3991H213.887L212.074 73.3904ZM211.858 71.8811C211.776 71.9875 211.666 72.0694 211.541 72.1176C211.405 72.1707 211.26 72.2015 211.114 72.2089C210.956 72.2198 210.807 72.2244 210.665 72.2244H209.741V70.6036H210.768C210.912 70.6039 211.057 70.614 211.2 70.6338C211.336 70.6502 211.469 70.6894 211.593 70.7497C211.706 70.8063 211.803 70.8909 211.874 70.9954C211.954 71.1251 211.993 71.276 211.985 71.4282C211.995 71.5891 211.95 71.7487 211.858 71.8811Z" fill="#1C3554"/>
</g>
</svg>
