<svg width="250" height="104" viewBox="0 0 250 104" fill="none" xmlns="http://www.w3.org/2000/svg">
<g opacity="0.4">
<path d="M26 45.4983V52.7184C28.4673 52.7167 30.9107 53.2015 33.1904 54.1451C35.4701 55.0887 37.5413 56.4725 39.2857 58.2174C41.0296 59.9617 42.4126 62.0326 43.3556 64.3117C44.2986 66.5908 44.7832 69.0335 44.7816 71.5H51.9966C51.9901 64.6068 49.2492 57.9977 44.3755 53.123C39.5017 48.2483 32.8932 45.5062 26 45.4983H26Z" fill="#1C3554"/>
<path d="M62.0821 32.5H50.6479C56.4323 36.1656 61.3335 41.0662 64.9999 46.85V35.4158C64.9994 34.6423 64.6918 33.9006 64.1446 33.3539C63.5975 32.8071 62.8556 32.5 62.0821 32.5V32.5Z" fill="#1C3554"/>
<path d="M33.1842 32.5H26V39.0007C34.6167 39.0096 42.8779 42.4365 48.9709 48.5294C55.064 54.6222 58.4911 62.8833 58.5003 71.5H65V64.3158C63.5304 56.4199 59.7042 49.154 54.0251 43.4749C48.346 37.7958 41.0801 33.9696 33.1842 32.5V32.5Z" fill="#1C3554"/>
<path d="M82.6844 36.7931H78.105V59.8749H82.6844V36.7931Z" fill="#1C3554"/>
<path d="M99.5224 46.7935C98.76 46.1005 97.8677 45.5657 96.8971 45.2201C94.8121 44.488 92.5399 44.488 90.4549 45.2201C89.4839 45.5654 88.5911 46.1002 87.8285 46.7935C87.0807 47.4829 86.4832 48.3194 86.0735 49.2505C85.6501 50.2662 85.4321 51.3557 85.4321 52.4562C85.4321 53.5566 85.6501 54.6461 86.0735 55.6619C86.4816 56.5956 87.0793 57.4344 87.8285 58.125C88.5898 58.8188 89.482 59.3533 90.4528 59.6973C92.5376 60.4308 94.8102 60.4308 96.895 59.6973C97.8661 59.3533 98.7587 58.8188 99.5203 58.125C100.269 57.4341 100.867 56.5954 101.275 55.6619C101.699 54.6461 101.917 53.5566 101.917 52.4562C101.917 51.3557 101.699 50.2662 101.275 49.2505C100.866 48.3197 100.269 47.4833 99.5224 46.7935ZM96.3777 55.1744C95.6362 55.8423 94.6735 56.212 93.6755 56.212C92.6774 56.212 91.7147 55.8423 90.9732 55.1744C90.3499 54.4049 90.0098 53.4448 90.0098 52.4546C90.0098 51.4644 90.3499 50.5043 90.9732 49.7349C91.7147 49.0669 92.6774 48.6972 93.6755 48.6972C94.6735 48.6972 95.6362 49.0669 96.3777 49.7349C97.001 50.5043 97.3411 51.4644 97.3411 52.4546C97.3411 53.4448 97.001 54.4049 96.3777 55.1744V55.1744Z" fill="#1C3554"/>
<path d="M115.963 46.9915H115.905C115.694 46.6941 115.448 46.4227 115.173 46.1827C114.839 45.888 114.47 45.6363 114.074 45.4335C113.073 44.9199 111.962 44.6582 110.837 44.671C109.852 44.6537 108.877 44.8793 107.999 45.3278C107.18 45.7515 106.458 46.3387 105.876 47.053C105.283 47.7893 104.828 48.627 104.533 49.5254C104.219 50.4511 104.059 51.4218 104.06 52.3991C104.048 53.4482 104.224 54.4909 104.579 55.4781C104.901 56.379 105.402 57.2051 106.053 57.9063C106.701 58.5925 107.488 59.133 108.361 59.492C109.31 59.8789 110.328 60.0709 111.353 60.0565C112.111 60.0434 112.86 59.8935 113.565 59.6141C114.356 59.3143 115.041 58.7885 115.535 58.1024H115.596V59.5392C115.614 60.0185 115.535 60.4963 115.364 60.9445C115.194 61.3928 114.935 61.8024 114.604 62.1491C114.184 62.521 113.692 62.8037 113.159 62.9801C112.627 63.1565 112.064 63.223 111.505 63.1754C110.618 63.1854 109.739 63.0084 108.925 62.6561C108.116 62.2944 107.36 61.8218 106.681 61.2521L104.147 65.0341C105.183 65.8683 106.393 66.4581 107.689 66.7593C108.97 67.0541 110.282 67.2025 111.597 67.2017C114.487 67.2017 116.639 66.474 118.053 65.0187C119.468 63.5634 120.175 61.4314 120.176 58.6227V45.0374H115.968L115.963 46.9915ZM115.688 53.7539C115.507 54.1883 115.242 54.5828 114.909 54.9146C114.569 55.253 114.171 55.527 113.734 55.7234C113.28 55.925 112.788 56.0292 112.291 56.0292C111.794 56.0292 111.303 55.925 110.849 55.7234C110.417 55.5243 110.024 55.2505 109.688 54.9146C109.353 54.58 109.087 54.1826 108.906 53.7451C108.724 53.3077 108.631 52.8388 108.631 52.3653C108.631 51.8917 108.724 51.4228 108.906 50.9854C109.087 50.548 109.353 50.1505 109.688 49.8159C110.024 49.48 110.417 49.2059 110.849 49.0061C111.303 48.8051 111.794 48.7013 112.291 48.7013C112.788 48.7013 113.279 48.8051 113.734 49.0061C114.171 49.2032 114.569 49.4775 114.909 49.8159C115.413 50.3223 115.755 50.9663 115.894 51.667C116.033 52.3678 115.961 53.0938 115.688 53.7539V53.7539Z" fill="#1C3554"/>
<path d="M137.38 46.7935C136.617 46.1005 135.725 45.5657 134.754 45.2201C132.669 44.488 130.397 44.488 128.312 45.2201C127.341 45.5654 126.449 46.1002 125.686 46.7935C124.938 47.4829 124.341 48.3194 123.931 49.2505C123.508 50.2662 123.29 51.3557 123.29 52.4562C123.29 53.5566 123.508 54.6461 123.931 55.6619C124.339 56.5956 124.937 57.4344 125.686 58.125C126.448 58.819 127.341 59.3536 128.312 59.6973C130.397 60.4308 132.67 60.4308 134.754 59.6973C135.726 59.3533 136.618 58.8188 137.38 58.125C138.129 57.4344 138.727 56.5956 139.135 55.6619C139.558 54.6461 139.776 53.5566 139.776 52.4562C139.776 51.3557 139.558 50.2662 139.135 49.2505C138.725 48.3194 138.128 47.4829 137.38 46.7935V46.7935ZM134.235 55.1744C133.494 55.8423 132.531 56.212 131.533 56.212C130.535 56.212 129.572 55.8423 128.831 55.1744C128.207 54.4049 127.867 53.4448 127.867 52.4546C127.867 51.4644 128.207 50.5043 128.831 49.7349C129.572 49.0669 130.535 48.6972 131.533 48.6972C132.531 48.6972 133.494 49.0669 134.235 49.7349C134.858 50.5043 135.199 51.4644 135.199 52.4546C135.199 53.4448 134.858 54.4049 134.235 55.1744Z" fill="#1C3554"/>
<path d="M145.851 45.1401H143.395V59.875H145.851V45.1401Z" fill="#1C3554"/>
<path d="M144.624 37.5843C144.386 37.5798 144.149 37.625 143.929 37.7171C143.71 37.8091 143.512 37.946 143.348 38.119C143.098 38.3708 142.929 38.6908 142.861 39.0388C142.792 39.3868 142.829 39.7472 142.965 40.0745C143.102 40.4019 143.332 40.6815 143.627 40.8782C143.922 41.0749 144.269 41.1799 144.623 41.1799C144.978 41.1799 145.324 41.0749 145.62 40.8782C145.915 40.6815 146.145 40.4019 146.281 40.0745C146.418 39.7472 146.454 39.3868 146.386 39.0388C146.318 38.6908 146.148 38.3708 145.898 38.119C145.735 37.946 145.537 37.809 145.318 37.7169C145.098 37.6248 144.862 37.5797 144.624 37.5843V37.5843Z" fill="#1C3554"/>
<path d="M164.018 46.9711C163.327 46.2657 162.496 45.713 161.578 45.3485C160.571 44.9515 159.497 44.7539 158.414 44.7666C157.395 44.7549 156.386 44.9815 155.47 45.4285C154.567 45.8774 153.768 46.5098 153.124 47.2851H153.058V45.1401H150.605V67.054H153.058V57.263H153.12C153.642 58.161 154.402 58.897 155.316 59.3895C156.377 59.9837 157.578 60.2828 158.794 60.2557C159.789 60.262 160.776 60.0636 161.691 59.6728C162.575 59.2978 163.373 58.7459 164.036 58.0512C164.71 57.3412 165.239 56.5075 165.595 55.5963C166.351 53.6082 166.351 51.4121 165.595 49.424C165.236 48.5106 164.7 47.6771 164.018 46.9711V46.9711ZM163.152 54.6685C162.923 55.31 162.565 55.8978 162.099 56.3955C161.634 56.8931 161.072 57.29 160.447 57.5616C159.066 58.1273 157.518 58.1273 156.137 57.5616C155.511 57.29 154.948 56.8928 154.482 56.3946C154.017 55.8964 153.658 55.3078 153.429 54.6654C152.947 53.269 152.947 51.7513 153.429 50.3549C153.658 49.7124 154.017 49.1239 154.482 48.6257C154.948 48.1275 155.511 47.7302 156.137 47.4586C157.518 46.8929 159.066 46.8929 160.447 47.4586C161.073 47.7302 161.636 48.1275 162.102 48.6257C162.567 49.1239 162.926 49.7124 163.155 50.3549C163.637 51.7513 163.637 53.269 163.155 54.6654L163.152 54.6685Z" fill="#1C3554"/>
<path d="M178.533 52.5131C178.067 52.1641 177.547 51.8931 176.994 51.7105C176.386 51.5056 175.766 51.3424 175.136 51.222C174.664 51.1413 174.196 51.0365 173.735 50.9079C173.324 50.7963 172.923 50.6486 172.538 50.4666C172.23 50.3267 171.951 50.1288 171.717 49.8837C171.518 49.6644 171.411 49.3771 171.419 49.0811C171.414 48.7617 171.507 48.4485 171.686 48.1841C171.863 47.9229 172.094 47.7027 172.363 47.5385C172.651 47.3644 172.965 47.2369 173.293 47.1609C173.628 47.0778 173.973 47.0354 174.319 47.0346C174.977 47.0142 175.628 47.1838 176.192 47.5232C176.702 47.8438 177.128 48.2806 177.436 48.7978L179.482 47.4441C179.029 46.5494 178.293 45.8296 177.388 45.3966C176.476 44.9731 175.481 44.7582 174.476 44.7675C173.794 44.7659 173.116 44.8612 172.461 45.0508C171.834 45.2297 171.238 45.5069 170.697 45.8718C170.18 46.2212 169.749 46.6842 169.438 47.2255C169.116 47.802 168.953 48.4537 168.966 49.1139C168.94 49.7602 169.087 50.4017 169.391 50.9726C169.668 51.4501 170.055 51.8547 170.52 52.1529C171.033 52.4764 171.589 52.7256 172.172 52.8928C172.802 53.0817 173.463 53.2497 174.156 53.3968C174.555 53.4809 174.944 53.5753 175.321 53.68C175.674 53.7749 176.014 53.9179 176.328 54.1049C176.606 54.2696 176.847 54.4893 177.037 54.7505C177.226 55.0398 177.32 55.3811 177.305 55.7265C177.316 56.0893 177.217 56.4471 177.021 56.7528C176.826 57.0425 176.568 57.2846 176.266 57.461C175.939 57.6556 175.583 57.7943 175.211 57.8715C174.833 57.9544 174.448 57.9968 174.061 57.9977C173.296 58.0273 172.538 57.8417 171.873 57.462C171.262 57.0728 170.723 56.5787 170.283 56.0026L168.333 57.5143C168.937 58.4518 169.794 59.199 170.805 59.6696C171.841 60.0808 172.949 60.2791 174.063 60.2525C174.789 60.2532 175.513 60.1688 176.219 60.0011C176.89 59.8458 177.53 59.5742 178.108 59.1985C178.66 58.8319 179.118 58.3395 179.442 57.7617C179.795 57.1059 179.969 56.3691 179.947 55.6249C179.967 54.9851 179.838 54.3495 179.57 53.7683C179.325 53.2756 178.971 52.846 178.533 52.5131V52.5131Z" fill="#1C3554"/>
<path d="M196.227 56.3803V45.1401H193.771V52.3243C193.779 53.0989 193.689 53.8713 193.503 54.6233C193.346 55.2679 193.067 55.8767 192.682 56.4173C192.316 56.9198 191.828 57.3208 191.265 57.5822C190.616 57.8701 189.912 58.0104 189.203 57.9927C188.723 58.0315 188.241 57.9545 187.797 57.7682C187.353 57.5819 186.961 57.2918 186.652 56.9222C186.062 56.0639 185.774 55.0341 185.831 53.9942V45.1401H183.375V54.2395C183.368 55.0643 183.479 55.8859 183.706 56.679C183.903 57.3821 184.254 58.0329 184.732 58.5849C185.211 59.1245 185.808 59.546 186.477 59.8165C187.274 60.1275 188.125 60.2775 188.98 60.2578C189.555 60.2624 190.128 60.1826 190.681 60.0207C191.179 59.8755 191.655 59.6639 192.097 59.3916C192.499 59.1441 192.864 58.8423 193.183 58.4946C193.47 58.1852 193.709 57.8348 193.892 57.4549H193.955C193.955 57.8757 193.965 58.2862 193.986 58.6865C194.008 59.0867 194.018 59.4856 194.017 59.8832H196.348C196.348 59.3994 196.327 58.864 196.284 58.277C196.242 57.6899 196.223 57.0577 196.227 56.3803Z" fill="#1C3554"/>
<path d="M222.769 48.3679C222.605 47.6549 222.282 46.9882 221.824 46.4179C221.362 45.866 220.766 45.4419 220.093 45.1863C219.245 44.8805 218.348 44.7364 217.448 44.7614C216.47 44.7187 215.503 44.977 214.677 45.5014C213.911 46.0507 213.268 46.7532 212.788 47.5643C212.663 47.3118 212.5 47.023 212.3 46.698C212.077 46.3471 211.795 46.038 211.466 45.7846C211.061 45.4771 210.611 45.2347 210.131 45.0662C209.487 44.8497 208.81 44.7482 208.131 44.7665C207.556 44.7618 206.983 44.8417 206.431 45.0036C205.933 45.1488 205.456 45.3604 205.014 45.6327C204.613 45.8805 204.247 46.1823 203.928 46.5297C203.642 46.8391 203.403 47.1895 203.22 47.5694H203.156C203.156 47.1486 203.146 46.7401 203.126 46.3378C203.105 45.9355 203.094 45.5404 203.094 45.1411H200.764C200.764 45.6249 200.785 46.1603 200.827 46.7473C200.868 47.3344 200.889 47.9642 200.889 48.6368V59.8759H203.347V52.6979C203.34 51.923 203.43 51.1503 203.615 50.3979C203.772 49.753 204.051 49.1441 204.436 48.6039C204.801 48.1012 205.289 47.7002 205.853 47.439C206.501 47.1509 207.206 47.0107 207.916 47.0285C208.336 46.9926 208.758 47.0687 209.14 47.2489C209.521 47.4292 209.848 47.7073 210.087 48.0548C210.615 49.1347 210.843 50.336 210.749 51.5341V59.878H213.2V51.3739C213.193 50.7679 213.294 50.1655 213.5 49.5953C213.682 49.0899 213.961 48.6248 214.321 48.2262C214.661 47.8531 215.073 47.5532 215.533 47.3446C215.998 47.1342 216.503 47.0267 217.013 47.0296C217.619 47.0075 218.223 47.1259 218.776 47.3754C219.212 47.5861 219.59 47.9 219.877 48.2899C220.154 48.6758 220.347 49.1152 220.445 49.5799C220.55 50.0662 220.602 50.5624 220.602 51.0599V59.8759H223.053V50.9337C223.062 50.0701 222.967 49.2086 222.769 48.3679Z" fill="#1C3554"/>
</g>
</svg>
