<svg width="57" height="16" viewBox="0 0 57 16" fill="none" xmlns="http://www.w3.org/2000/svg">
<path fill-rule="evenodd" clip-rule="evenodd" d="M8.02721 12.8589L12.988 16L11.6716 10.08L16.0544 6.09684L10.2829 5.58316L8.02721 0L5.77156 5.58316L0 6.09684L4.38286 10.08L3.06639 16L8.02721 12.8589Z" fill="#FAA307"/>
<path fill-rule="evenodd" clip-rule="evenodd" d="M28.0956 12.8589L33.0564 16L31.7399 10.08L36.1228 6.09684L30.3512 5.58316L28.0956 0L25.8399 5.58316L20.0684 6.09684L24.4512 10.08L23.1348 16L28.0956 12.8589Z" fill="#FAA307"/>
<path fill-rule="evenodd" clip-rule="evenodd" d="M48.1634 12.8589L53.1243 16L51.8078 10.08L56.1907 6.09684L50.4191 5.58316L48.1634 0L45.9078 5.58316L40.1362 6.09684L44.5191 10.08L43.2026 16L48.1634 12.8589Z" fill="#FAA307"/>
</svg>
