<svg width="77" height="16" viewBox="0 0 77 16" fill="none" xmlns="http://www.w3.org/2000/svg">
<path fill-rule="evenodd" clip-rule="evenodd" d="M8 12.8589L12.944 16L11.632 10.08L16 6.09684L10.248 5.58316L8 0L5.752 5.58316L0 6.09684L4.368 10.08L3.056 16L8 12.8589Z" fill="#FAA307"/>
<path fill-rule="evenodd" clip-rule="evenodd" d="M28.0684 12.8589L33.0124 16L31.7004 10.08L36.0684 6.09684L30.3164 5.58316L28.0684 0L25.8204 5.58316L20.0684 6.09684L24.4364 10.08L23.1244 16L28.0684 12.8589Z" fill="#FAA307"/>
<path fill-rule="evenodd" clip-rule="evenodd" d="M48.1362 12.8589L53.0802 16L51.7682 10.08L56.1362 6.09684L50.3842 5.58316L48.1362 0L45.8882 5.58316L40.1362 6.09684L44.5042 10.08L43.1922 16L48.1362 12.8589Z" fill="#FAA307"/>
<path fill-rule="evenodd" clip-rule="evenodd" d="M68.2043 12.8589L73.1483 16L71.8363 10.08L76.2043 6.09684L70.4523 5.58316L68.2043 0L65.9563 5.58316L60.2043 6.09684L64.5723 10.08L63.2603 16L68.2043 12.8589Z" fill="#FAA307"/>
</svg>
